<svg width="250" height="363" viewBox="0 0 250 363" fill="none" xmlns="http://www.w3.org/2000/svg">
<path d="M142.784 0C145.521 1.73377 146.991 2.09652 150.053 2.53846C147.316 0.804692 145.846 0.441946 142.784 0Z" fill="#BEBEBE"/>
<path d="M134.91 3.3841C134.102 4.51244 136.021 4.3713 136.12 4.23041C136.929 3.10206 135.01 3.24296 134.91 3.3841Z" fill="#434345"/>
<path d="M44.6552 124.385C25.431 137.758 -6.13562 171.361 1.04218 205.615C8.94032 202.97 15.5435 197.665 22.8487 192.923C18.7236 201.671 9.45314 213.83 10.9022 225.344C11.8851 233.153 18.3747 233.447 22.8505 232.736C32.9887 231.129 43.1451 225.281 51.9241 218.308C51.9241 239.689 48.5641 267.353 66.4636 276.611C74.2921 280.66 88.7589 272.874 94.1324 282.881C99.4896 292.855 93.7435 317.978 93.7199 330C81.0539 332.394 68.617 339.407 57.3757 347.769C66.6653 352.371 79.6274 342.966 88.2683 337.615C84.4885 346.104 80.1562 353.773 77.365 363C86.104 357.052 89.9092 344.675 97.874 337.458C102.979 332.835 109.822 332.521 115.526 330C109.441 326.433 103.598 327.423 97.3543 330C97.5815 314.683 99.6149 299.485 100.989 284.308C110.376 283.744 119.188 277.304 128.247 276.814C133.381 276.535 137.878 280.967 142.785 282.409C147.653 283.841 152.463 282.571 157.322 281.769C158.747 296.543 163.039 310.235 164.591 324.923H142.785V330C150.473 330 158.94 328.657 166.408 331.617C176.541 335.635 185.769 344.657 195.484 350.308C192.389 342.418 188.542 338.956 182.763 335.077C187.722 333.021 192.122 332.592 197.301 332.538C189.847 325.423 179.761 329.614 172.411 322.415C164.137 314.307 163.106 289.209 159.139 276.692C166.803 274.136 175.732 274.816 182.592 268.848C198.153 255.313 192.22 225.522 188.215 205.615C198.511 214.482 208.482 225.928 220.923 227.989C224.897 228.647 232.224 229.535 233.725 222.58C234.983 216.752 231.873 210.763 229.293 206.694C222.153 195.439 212.705 187.387 204.57 177.692C219.151 181.487 235.499 186.219 250 180.231C239.487 149.004 209.763 141.958 188.215 134.538C204.397 94.7711 189.22 59.3921 157.322 55.8461C165.449 47.7149 180.346 37.6403 182.963 22.9931C186.414 3.65762 158.649 17.2404 153.688 20.3076C157.191 -3.21653 139.47 2.03657 128.247 6.32073C116.271 10.8922 106.92 22.3577 95.5371 28.3226C85.5243 33.5691 74.7046 28.6825 64.6445 35.3348C41.2207 50.8227 35.1821 93.027 44.6552 124.385Z" fill="#050505"/>
<path d="M142.784 7.61523C145.052 9.35357 145.597 9.51603 148.236 10.1537C145.968 8.41536 145.423 8.2529 142.784 7.61523Z" fill="#444013"/>
<path d="M149.448 8.46119C148.64 9.58953 150.559 9.44839 150.659 9.3075C151.467 8.17941 149.548 8.32005 149.448 8.46119Z" fill="#817D26"/>
<path d="M156.11 9.30782C156.01 9.4487 155.908 12.1283 156.717 11C156.817 10.8591 156.918 8.17947 156.11 9.30782Z" fill="#242625"/>
<path d="M136.728 11.0002C135.919 12.1285 137.838 11.9874 137.938 11.8465C138.747 10.7182 136.828 10.8593 136.728 11.0002Z" fill="#C1B636"/>
<path d="M104.623 33.0005C113.149 40.3242 120.227 47.2572 126.43 58.3851C138.579 53.5331 153.553 46.2794 157.322 27.9235C148.207 29.0422 140.56 34.6116 131.881 38.0774C137.8 27.5085 146.184 21.1646 151.871 10.1543C135.407 10.3447 116.895 16.9523 104.623 33.0005Z" fill="#FFF249"/>
<path d="M171.255 11.0003C170.446 12.1287 172.365 11.9875 172.465 11.8466C173.274 10.7183 171.355 10.8592 171.255 11.0003Z" fill="#808281"/>
<path d="M173.677 10.1543C176.413 11.8881 177.884 12.2508 180.946 12.6928C178.209 10.959 176.739 10.5962 173.677 10.1543Z" fill="#444444"/>
<path d="M175.494 15.2305C177.762 16.9688 178.307 17.1313 180.946 17.7689C178.678 16.0306 178.133 15.8681 175.494 15.2305Z" fill="#5A551E"/>
<path d="M185.186 16.923C185.086 17.0639 184.984 19.7435 185.793 18.6151C185.893 18.474 185.995 15.7949 185.186 16.923Z" fill="#BEBDC2"/>
<path d="M155.505 25.3849C154.898 45.109 138.734 50.0468 128.247 58.3849L131.881 71.0772C148.345 60.8904 172.233 40.221 180.946 17.7695C172.042 18.3379 164.112 22.6035 155.505 25.3849Z" fill="#E4D544"/>
<path d="M76.7599 28.7687C75.9512 29.8971 77.8701 29.7559 77.9701 29.6151C78.7787 28.4867 76.8598 28.6279 76.7599 28.7687Z" fill="#818380"/>
<path d="M79.1821 27.9229C82.911 30.1422 85.9912 30.3415 90.0854 30.4613C86.3565 28.2422 83.2763 28.0427 79.1821 27.9229Z" fill="#434341"/>
<path d="M90.0854 27.9229C92.3533 29.6612 92.9003 29.8237 95.5371 30.4613C93.2692 28.723 92.724 28.5605 90.0854 27.9229Z" fill="#8F9190"/>
<path d="M80.3941 36.385C79.5855 37.5133 81.5044 37.3722 81.6044 37.2313C82.413 36.1029 80.4941 36.2441 80.3941 36.385Z" fill="#625E1E"/>
<path d="M82.8164 35.5381C85.5531 37.2719 87.0232 37.6346 90.0852 38.0765C87.3485 36.3428 85.8784 35.98 82.8164 35.5381Z" fill="#827A25"/>
<path d="M91.2975 36.385C90.4888 37.5133 92.4077 37.3722 92.5077 37.2313C93.3163 36.1029 91.3974 36.2441 91.2975 36.385Z" fill="#444118"/>
<path d="M133.094 36.385C132.285 37.5133 134.204 37.3724 134.304 37.2313C135.113 36.1029 133.194 36.2441 133.094 36.385Z" fill="#524F1A"/>
<path d="M53.7412 63.4611C63.1235 68.3784 73.0854 70.0995 82.8166 73.3213C98.2483 78.4302 114.165 85.3389 130.064 86.3073C119.971 37.4617 76.2183 19.2861 53.7412 63.4611Z" fill="#FFF249"/>
<path d="M165.803 56.6927C164.994 57.821 166.913 57.6799 167.013 57.539C167.822 56.4107 165.903 56.5516 165.803 56.6927Z" fill="#545454"/>
<path d="M52.5292 62.6154C52.4292 62.7562 52.3275 65.4358 53.1361 64.3075C53.2361 64.1664 53.3378 61.4873 52.5292 62.6154Z" fill="#35310E"/>
<path d="M153.083 64.3079C152.274 65.4363 154.193 65.2951 154.293 65.1543C155.102 64.0259 153.183 64.1668 153.083 64.3079Z" fill="#827C26"/>
<path d="M156.717 64.3078C155.908 65.4362 157.827 65.295 157.927 65.1541C158.736 64.0258 156.817 64.1669 156.717 64.3078Z" fill="#C1B636"/>
<path d="M137.333 88.8466C150.922 84.4548 164.055 77.1032 177.312 71.0774C162.585 58.6735 142.55 64.8348 137.333 88.8466Z" fill="#FFF249"/>
<path d="M163.986 64.3079C163.178 65.4363 165.097 65.2951 165.197 65.1543C166.005 64.0259 164.086 64.1668 163.986 64.3079Z" fill="#C1B837"/>
<path d="M167.62 64.3079C166.812 65.4362 168.73 65.2951 168.83 65.1542C169.639 64.0261 167.72 64.1667 167.62 64.3079Z" fill="#544E1C"/>
<path d="M51.3189 69.385C50.5103 70.5133 52.4293 70.3724 52.5292 70.2313C53.3379 69.1029 51.4189 69.2441 51.3189 69.385Z" fill="#535353"/>
<path d="M50.1066 71.0771C46.6939 89.5082 45.7671 106.267 50.9753 124.385C60.3175 156.872 89.9345 180.244 113.674 161.403C120.436 156.034 121.468 148.589 124.874 139.716C128.885 129.271 140.309 110.858 130.785 98.8436C127.404 94.5777 121.587 94.166 117.343 92.846C107.645 89.8295 97.9229 86.7158 88.2681 83.4405C75.6312 79.1533 63.0016 73.5029 50.1066 71.0771Z" fill="white"/>
<path d="M78.5772 71.9232C77.7686 73.0515 79.6875 72.9104 79.7875 72.7695C80.5961 71.6411 78.6772 71.782 78.5772 71.9232Z" fill="#DFD341"/>
<path d="M133.094 71.9232C132.285 73.0512 134.204 72.9106 134.304 72.7695C135.113 71.6411 133.194 71.782 133.094 71.9232Z" fill="#9D942D"/>
<path d="M85.8458 74.4611C85.0371 75.5895 86.9561 75.4483 87.056 75.3075C87.8647 74.1791 85.9457 74.3202 85.8458 74.4611Z" fill="#C1B73B"/>
<path d="M90.0854 76.1543C92.3533 77.8926 92.9003 78.0551 95.5371 78.6928C93.2692 76.9544 92.724 76.792 90.0854 76.1543Z" fill="#716E21"/>
<path d="M184.58 76.1543C177.157 78.5534 170.001 82.0968 162.774 85.4621C156.533 88.3673 147.013 90.3197 142.063 96.6793C134.814 105.997 140.734 123.284 146.526 130.428C159.603 146.559 180.17 147.007 187.8 121.837C189.959 114.711 190.237 106.641 189.952 99.0005C189.626 90.3179 187.575 83.6235 184.58 76.1543Z" fill="white"/>
<path d="M39.8085 80.3849C39.7085 80.5258 39.6068 83.2054 40.4154 82.077C40.5154 81.9359 40.6171 79.2568 39.8085 80.3849Z" fill="#636363"/>
<path d="M100.383 79.5383C99.5747 80.6666 101.494 80.5255 101.594 80.3846C102.402 79.2563 100.483 79.3974 100.383 79.5383Z" fill="#827C26"/>
<path d="M108.257 81.2305C110.525 82.9688 111.072 83.1313 113.709 83.7689C111.441 82.0306 110.896 81.8681 108.257 81.2305Z" fill="#908A2A"/>
<path d="M39.2036 83.7695V101.539C41.128 95.1055 41.128 90.2028 39.2036 83.7695Z" fill="#434343"/>
<path d="M47.0775 85.462C46.9776 85.6029 46.8758 88.2825 47.6845 87.1542C47.7844 87.013 47.8862 84.334 47.0775 85.462Z" fill="#D1D1D1"/>
<path d="M115.526 83.7695C117.794 85.5079 118.339 85.6703 120.978 86.308C118.71 84.5697 118.165 84.4072 115.526 83.7695Z" fill="#716D23"/>
<path d="M130.669 85.462C130.569 85.6029 130.468 88.2825 131.276 87.1542C131.376 87.013 131.478 84.334 130.669 85.462Z" fill="#827C26"/>
<path d="M127.642 87.1536C126.833 88.282 128.752 88.1408 128.852 88C129.661 86.8716 127.742 87.0125 127.642 87.1536Z" fill="#B1A734"/>
<path d="M136.728 89.6926C135.919 90.8209 137.838 90.6798 137.938 90.5389C138.747 89.4106 136.828 89.5517 136.728 89.6926Z" fill="#22240E"/>
<path d="M190.032 93.9229V109.154C191.76 103.352 191.76 99.724 190.032 93.9229Z" fill="#C1C1C1"/>
<path d="M195.483 93.9229V109.154C197.212 103.352 197.212 99.724 195.483 93.9229Z" fill="#BFBFBF"/>
<path d="M137.938 100.692C137.838 100.833 137.736 103.513 138.545 102.385C138.645 102.244 138.747 99.5644 137.938 100.692Z" fill="#444444"/>
<path d="M39.8085 103.231C39.7085 103.371 39.6068 106.051 40.4154 104.923C40.5154 104.782 40.6171 102.103 39.8085 103.231Z" fill="#808080"/>
<path d="M133.698 101.538V109.153C134.963 105.209 134.963 105.482 133.698 101.538Z" fill="#434343"/>
<path d="M150.054 101.538C152.322 103.276 152.867 103.439 155.505 104.077C153.237 102.338 152.692 102.176 150.054 101.538Z" fill="#C0C0C0"/>
<path d="M47.0775 105.77C46.9776 105.911 46.8758 108.59 47.6845 107.462C47.7844 107.321 47.8862 104.641 47.0775 105.77Z" fill="#A1A1A1"/>
<path d="M106.709 106.735C96.8074 114.339 105.761 134.286 114.949 126.419C123.5 119.099 115.932 99.653 106.709 106.735Z" fill="#050505"/>
<path d="M149.332 106.833C143.442 112.461 150.516 125.463 156.199 119.19C161.294 113.566 154.529 101.868 149.332 106.833Z" fill="#050505"/>
<path d="M39.8085 108.308C39.7085 108.449 39.6068 111.128 40.4154 110C40.5154 109.859 40.6171 107.18 39.8085 108.308Z" fill="#DDDDDD"/>
<path d="M134.304 110.847C134.204 110.988 134.102 113.667 134.911 112.539C135.011 112.398 135.112 109.718 134.304 110.847Z" fill="#828282"/>
<path d="M159.14 109.154V116.77C160.404 112.826 160.404 113.098 159.14 109.154Z" fill="#828282"/>
<path d="M119.161 111.692V119.308C120.425 115.364 120.425 115.636 119.161 111.692Z" fill="#828282"/>
<path d="M145.207 113.385C145.107 113.526 145.006 116.205 145.814 115.077C145.914 114.936 146.016 112.257 145.207 113.385Z" fill="#727272"/>
<path d="M133.698 114.23V121.846C134.963 117.902 134.963 118.174 133.698 114.23Z" fill="#434343"/>
<path d="M137.938 118.462C137.838 118.603 137.736 121.283 138.545 120.154C138.645 120.013 138.747 117.334 137.938 118.462Z" fill="#444444"/>
<path d="M150.054 121.846C152.322 123.584 152.867 123.747 155.505 124.384C153.237 122.646 152.692 122.483 150.054 121.846Z" fill="#444444"/>
<path d="M109.47 130.308C108.661 131.436 110.58 131.295 110.68 131.154C111.489 130.026 109.57 130.167 109.47 130.308Z" fill="#C2C2C2"/>
<path d="M2.85938 198C19.6559 187.745 34.0681 169.859 50.1068 157.385C43.5031 184.747 20.768 198.051 15.5798 225.923C33.8937 224.75 48.4695 206.841 66.4617 203.077C57.9009 216.805 54.0193 232.635 58.6532 251.27C60.6194 259.177 72.6039 278.175 79.1259 267.442C82.0861 262.573 80.7723 252.196 80.9994 246.231C90.5634 264.396 98.1048 276.857 115.526 273.677C119.895 272.88 123.909 269.772 128.247 269.135C136.433 267.935 143.255 276.322 151.863 273.052C159.163 270.278 162.122 262.045 166.29 254.171C169.227 248.625 173.314 244.456 175.642 238.288C180.75 224.758 179.129 207.682 179.129 192.923C176.209 195.472 175.431 195.962 171.86 195.462L168.226 208.154L162.774 205.615L160.957 218.308C152.143 209.827 145.507 209.568 139.15 195.462C124.649 204.542 119.323 188.519 117.344 170.077C110.22 172.379 102.937 177.291 95.5371 177.015C74.2612 176.223 57.7228 155.009 46.4724 132C29.7541 142.826 6.4729 171.912 2.85938 198Z" fill="#FFF349"/>
<path d="M133.698 132C136.435 133.734 137.905 134.097 140.967 134.538C138.23 132.805 136.76 132.442 133.698 132Z" fill="#7E5014"/>
<path d="M148.236 203.076C155.383 186.437 158.58 143.415 140.968 136.219C122.761 128.779 133.681 169.15 137.082 177.692C140.539 186.373 144.315 194.799 148.236 203.076Z" fill="#F79822"/>
<path d="M191.244 135.385C190.436 136.513 192.355 136.372 192.454 136.231C193.263 135.103 191.344 135.244 191.244 135.385Z" fill="#535355"/>
<path d="M153.688 213.231C156.559 214.967 156.917 215.274 159.139 218.308C161.069 214.01 161.901 210.591 162.774 205.615C165.461 208.118 164.96 208.154 168.225 208.154C169.843 203.724 170.866 200.221 171.86 195.462L177.311 198L175.494 185.308C194.206 196.939 208.856 218.955 230.01 223.385C224.98 198.566 200.005 186.384 188.215 167.539C206.983 167.539 224.232 174.423 242.731 177.692C238.451 166.795 230.606 162.03 222.742 156.829C213.107 150.458 197.381 138.356 186.397 141.478C181.812 142.781 177.922 147.258 173.677 149.806C169.659 152.219 164.996 153.216 162.052 158.182C158.452 164.259 159.352 172.933 158.594 180.231C157.438 191.372 154.765 202.054 153.688 213.231Z" fill="#FFF249"/>
<path d="M128.247 142.154V154.847C129.755 149.692 129.755 147.309 128.247 142.154Z" fill="#7D4F14"/>
<path d="M162.773 142.154C165.51 143.888 166.98 144.251 170.042 144.693C167.306 142.959 165.835 142.596 162.773 142.154Z" fill="#C1C1C1"/>
<path d="M122.795 144.692V152.308C124.06 148.364 124.06 148.636 122.795 144.692Z" fill="#454543"/>
<path d="M136.728 148.076C135.919 149.205 137.838 149.064 137.938 148.923C138.747 147.794 136.828 147.935 136.728 148.076Z" fill="#CA7B1E"/>
<path d="M145.814 148.076C145.005 149.205 146.924 149.064 147.024 148.923C147.832 147.794 145.914 147.935 145.814 148.076Z" fill="#6F4713"/>
<path d="M135.516 149.77V154.846H139.15V149.77H135.516Z" fill="#160F07"/>
<path d="M144.602 149.77V154.846H148.236V149.77H144.602Z" fill="#211906"/>
<path d="M157.322 149.77V154.846C160.293 153.463 159.966 153.92 160.957 149.77H157.322Z" fill="#BAAF39"/>
<path d="M160.957 149.77C164.686 151.989 167.766 152.188 171.86 152.308C168.131 150.089 165.051 149.889 160.957 149.77Z" fill="#817D26"/>
<path d="M152.476 154C152.376 154.141 152.274 156.821 153.083 155.691C153.183 155.552 153.285 152.872 152.476 154Z" fill="#C97D1F"/>
<path d="M159.14 159.923C161.787 157.123 162.587 156.006 164.591 152.308C160.295 153.532 160.016 153.922 159.14 159.923Z" fill="#E4D642"/>
<path d="M136.728 155.692C135.919 156.822 137.838 156.679 137.938 156.54C138.747 155.41 136.828 155.552 136.728 155.692Z" fill="#AB6A18"/>
<path d="M157.322 154.846V175.153C159.432 168.122 159.432 161.877 157.322 154.846Z" fill="#434015"/>
<path d="M47.6847 158.23C46.876 159.36 48.795 159.217 48.8949 159.078C49.7036 157.948 47.7846 158.09 47.6847 158.23Z" fill="#E0D53F"/>
<path d="M153.688 159.923V172.615C155.196 167.46 155.196 165.076 153.688 159.923Z" fill="#432A0C"/>
<path d="M120.978 162.462C122.717 172.961 125.121 183.074 128.247 192.923L135.516 190.385C131.969 179.774 128.409 168.349 120.978 162.462Z" fill="#EE4037"/>
<path d="M90.0854 167.538C93.3001 169.516 95.6025 169.853 99.1715 170.077C95.9569 168.099 93.6545 167.761 90.0854 167.538Z" fill="#828282"/>
<path d="M100.383 168.383C99.5747 169.513 101.494 169.371 101.594 169.231C102.402 168.102 100.483 168.244 100.383 168.383Z" fill="#242426"/>
<path d="M188.82 169.231C188.72 169.371 188.618 172.051 189.427 170.922C189.527 170.782 189.628 168.102 188.82 169.231Z" fill="#DED441"/>
<path d="M193.666 167.538C201.602 172.867 210.437 172.608 219.107 172.615C211.171 167.287 202.336 167.546 193.666 167.538Z" fill="#E4D544"/>
<path d="M196.695 170.922C195.887 172.052 197.806 171.91 197.906 171.77C198.714 170.641 196.795 170.783 196.695 170.922Z" fill="#756F25"/>
<path d="M200.33 170.922C199.522 172.052 201.44 171.91 201.54 171.77C202.349 170.641 200.43 170.783 200.33 170.922Z" fill="#ACA034"/>
<path d="M206.387 172.615C208.655 174.354 209.2 174.517 211.838 175.154C209.57 173.415 209.025 173.252 206.387 172.615Z" fill="#3D3B15"/>
<path d="M211.839 172.615C214.576 174.349 216.046 174.712 219.108 175.154C216.371 173.42 214.901 173.057 211.839 172.615Z" fill="#716D23"/>
<path d="M219.107 172.615C221.375 174.354 221.92 174.517 224.559 175.154C222.291 173.415 221.746 173.252 219.107 172.615Z" fill="#AEA037"/>
<path d="M90.0854 175.154C94.3232 177.655 98.1848 177.645 102.806 177.693C98.5682 175.192 94.7066 175.203 90.0854 175.154Z" fill="#C1B837"/>
<path d="M117.949 176.847C117.849 176.987 117.747 179.668 118.556 178.538C118.656 178.398 118.757 175.718 117.949 176.847Z" fill="#CFC63B"/>
<path d="M157.927 176.847C157.827 176.987 157.725 179.668 158.534 178.538C158.634 178.398 158.736 175.718 157.927 176.847Z" fill="#817B25"/>
<path d="M228.193 175.154C230.461 176.893 231.006 177.056 233.645 177.693C231.377 175.954 230.832 175.791 228.193 175.154Z" fill="#4B4717"/>
<path d="M234.858 176C234.049 177.129 235.968 176.987 236.068 176.847C236.876 175.718 234.957 175.86 234.858 176Z" fill="#B9B039"/>
<path d="M204.569 177.692C206.837 179.431 207.382 179.594 210.021 180.231C207.753 178.492 207.208 178.33 204.569 177.692Z" fill="#565253"/>
<path d="M151.871 180.23V187.846C153.136 183.901 153.136 184.175 151.871 180.23Z" fill="#8D5816"/>
<path d="M157.927 181.924C157.827 182.063 157.725 184.744 158.534 183.614C158.634 183.475 158.736 180.794 157.927 181.924Z" fill="#D0C73E"/>
<path d="M216.685 181.076C215.876 182.205 217.795 182.063 217.895 181.924C218.704 180.794 216.785 180.936 216.685 181.076Z" fill="#828282"/>
<path d="M220.319 181.076C219.511 182.205 221.43 182.063 221.53 181.924C222.338 180.794 220.419 180.936 220.319 181.076Z" fill="#353537"/>
<path d="M227.588 183.615C226.779 184.744 228.698 184.602 228.798 184.463C229.607 183.333 227.688 183.475 227.588 183.615Z" fill="#B0B0B0"/>
<path d="M231.223 183.615C230.414 184.744 232.333 184.602 232.433 184.463C233.242 183.333 231.323 183.475 231.223 183.615Z" fill="#828081"/>
<path d="M233.646 182.77C237.374 184.988 240.455 185.189 244.549 185.308C240.82 183.089 237.74 182.889 233.646 182.77Z" fill="#434343"/>
<path d="M176.1 187.001C176 187.14 175.898 189.821 176.707 188.691C176.807 188.552 176.909 185.871 176.1 187.001Z" fill="#716D23"/>
<path d="M155.505 187.846V195.461C156.77 191.516 156.77 191.79 155.505 187.846Z" fill="#726C22"/>
<path d="M150.659 197.155C150.559 197.295 150.457 199.975 151.266 198.846C151.365 198.706 151.467 196.025 150.659 197.155Z" fill="#5F3C12"/>
<path d="M179.129 195.462C179.129 205.491 179.781 216.082 178.168 225.923C175.88 239.862 170.555 252.483 168.226 266.539C191.631 264.744 191.695 215.379 179.129 195.462Z" fill="#E4D642"/>
<path d="M129.459 201.383C128.65 202.513 130.569 202.371 130.669 202.231C131.478 201.102 129.559 201.244 129.459 201.383Z" fill="#D0C73E"/>
<path d="M55.5586 215.77V243.693C58.159 235.036 58.159 224.426 55.5586 215.77Z" fill="#C0B738"/>
<path d="M50.1069 218.308V228.461C51.3972 223.994 51.3972 222.773 50.1069 218.308Z" fill="#808281"/>
<path d="M230.616 220.001C230.516 220.14 230.414 222.821 231.223 221.691C231.323 221.552 231.424 218.871 230.616 220.001Z" fill="#B0A633"/>
<path d="M186.397 220.846V228.461C187.662 224.516 187.662 224.79 186.397 220.846Z" fill="#65621F"/>
<path d="M227.588 224.23C226.779 225.36 228.698 225.217 228.798 225.078C229.607 223.948 227.688 224.09 227.588 224.23Z" fill="#434015"/>
<path d="M50.1069 228.462V251.308C52.3893 243.708 52.3893 236.062 50.1069 228.462Z" fill="#424244"/>
<path d="M186.397 228.462V241.154C187.906 236.001 187.906 233.615 186.397 228.462Z" fill="#AEA035"/>
<path d="M191.85 228.462V236.077C193.114 232.133 193.114 232.407 191.85 228.462Z" fill="#434343"/>
<path d="M222.137 229.307C221.328 230.437 223.247 230.295 223.347 230.155C224.156 229.025 222.237 229.168 222.137 229.307Z" fill="#616161"/>
<path d="M224.559 228.462C226.826 230.201 227.372 230.363 230.01 231C227.742 229.262 227.197 229.099 224.559 228.462Z" fill="#434343"/>
<path d="M187.002 242.847C186.902 242.987 186.801 245.668 187.609 244.538C187.709 244.398 187.811 241.718 187.002 242.847Z" fill="#766C24"/>
<path d="M192.454 245.385C192.355 245.525 192.253 248.206 193.061 247.076C193.161 246.936 193.263 244.256 192.454 245.385Z" fill="#535351"/>
<path d="M80.9993 261.462L79.1821 271.616H86.451C84.7083 267.562 83.3145 264.866 80.9993 261.462Z" fill="#E3D541"/>
<path d="M167.013 265.693C166.913 265.833 166.811 268.513 167.62 267.384C167.72 267.244 167.822 264.563 167.013 265.693Z" fill="#5C531C"/>
<path d="M171.255 267.383C170.446 268.513 172.365 268.371 172.465 268.231C173.274 267.102 171.355 267.244 171.255 267.383Z" fill="#756D24"/>
<path d="M77.3647 271.615C80.1015 273.349 81.5716 273.712 84.6336 274.154C81.8969 272.42 80.4267 272.057 77.3647 271.615Z" fill="#3E3A17"/>
<path d="M104.018 275C103.209 276.129 105.128 275.987 105.228 275.847C106.037 274.718 104.118 274.86 104.018 275Z" fill="#827C28"/>
<path d="M106.44 274.154C108.708 275.893 109.253 276.056 111.892 276.693C109.624 274.954 109.079 274.791 106.44 274.154Z" fill="#C1B837"/>
<path d="M113.104 275C112.295 276.129 114.214 275.987 114.314 275.847C115.123 274.718 113.204 274.86 113.104 275Z" fill="#827D29"/>
<path d="M129.459 275C128.65 276.129 130.569 275.987 130.669 275.847C131.478 274.718 129.559 274.86 129.459 275Z" fill="#C0C0C0"/>
<path d="M140.968 274.154C144.182 276.132 146.485 276.469 150.054 276.693C146.839 274.715 144.537 274.378 140.968 274.154Z" fill="#C0B734"/>
<path d="M82.8164 276.692C85.0843 278.431 85.6294 278.594 88.268 279.231C86.0002 277.492 85.455 277.33 82.8164 276.692Z" fill="#636363"/>
<path d="M111.287 282.615C110.478 283.744 112.397 283.602 112.497 283.463C113.306 282.333 111.387 282.475 111.287 282.615Z" fill="#626166"/>
<path d="M96.1424 286.001C96.0425 286.14 95.9408 288.821 96.7494 287.691C96.8494 287.552 96.9511 284.871 96.1424 286.001Z" fill="#343434"/>
<path d="M99.7767 293.616C99.6768 293.756 99.575 296.436 100.384 295.306C100.484 295.167 100.585 292.486 99.7767 293.616Z" fill="#434343"/>
<path d="M94.3251 296.155C94.2251 296.295 94.1234 298.975 94.932 297.846C95.032 297.706 95.1337 295.025 94.3251 296.155Z" fill="#B1B1B1"/>
<path d="M99.7767 298.693C99.6768 298.833 99.575 301.513 100.384 300.384C100.484 300.244 100.585 297.563 99.7767 298.693Z" fill="#828282"/>
<path d="M94.3251 301.231C94.2251 301.371 94.1234 304.051 94.932 302.922C95.032 302.782 95.1337 300.102 94.3251 301.231Z" fill="#818181"/>
<path d="M99.7767 303.77C99.6768 303.91 99.575 306.591 100.384 305.461C100.484 305.321 100.585 302.641 99.7767 303.77Z" fill="#BFBFBF"/>
<path d="M94.3251 306.308C94.2251 306.448 94.1234 309.128 94.932 307.999C95.032 307.859 95.1337 305.179 94.3251 306.308Z" fill="#434343"/>
<path d="M97.3545 312.23V319.846C98.6193 315.901 98.6193 316.175 97.3545 312.23Z" fill="#424242"/>
<path d="M91.9028 314.77V322.385C93.1676 318.44 93.1676 318.714 91.9028 314.77Z" fill="#BFBFBF"/>
<path d="M97.9593 321.539C97.8594 321.679 97.7577 324.359 98.5663 323.23C98.6663 323.09 98.768 320.41 97.9593 321.539Z" fill="#818181"/>
<path d="M92.5077 324.078C92.4077 324.217 92.306 326.898 93.1147 325.768C93.2146 325.629 93.3163 322.948 92.5077 324.078Z" fill="#727272"/>
<path d="M143.996 323.23C143.188 324.36 145.106 324.217 145.206 324.078C146.015 322.948 144.096 323.09 143.996 323.23Z" fill="#C0C0C0"/>
<path d="M146.419 322.385C148.687 324.124 149.232 324.286 151.871 324.923C149.603 323.184 149.058 323.022 146.419 322.385Z" fill="#828282"/>
<path d="M151.871 322.385C156.109 324.885 159.97 324.875 164.592 324.923C160.354 322.423 156.492 322.433 151.871 322.385Z" fill="#434343"/>
<path d="M173.072 323.23C172.264 324.36 174.183 324.217 174.282 324.078C175.091 322.948 173.172 323.09 173.072 323.23Z" fill="#BEBEBE"/>
<path d="M104.623 324.923C106.891 326.662 107.436 326.824 110.075 327.461C107.807 325.722 107.262 325.56 104.623 324.923Z" fill="#BFBFBF"/>
<path d="M110.075 324.923C112.343 326.662 112.888 326.824 115.526 327.461C113.258 325.722 112.713 325.56 110.075 324.923Z" fill="#818181"/>
<path d="M141.573 326.616C141.473 326.756 141.371 329.436 142.18 328.306C142.28 328.167 142.381 325.486 141.573 326.616Z" fill="#AFAFAF"/>
<path d="M180.341 325.768C179.532 326.898 181.451 326.756 181.551 326.616C182.36 325.486 180.441 325.628 180.341 325.768Z" fill="#434343"/>
<path d="M183.976 325.768C183.167 326.898 185.086 326.756 185.186 326.616C185.995 325.486 184.076 325.628 183.976 325.768Z" fill="#818181"/>
<path d="M187.61 325.768C186.801 326.898 188.72 326.756 188.82 326.616C189.629 325.486 187.71 325.628 187.61 325.768Z" fill="#BFBFBF"/>
<path d="M194.879 328.307C194.07 329.437 195.989 329.295 196.089 329.155C196.898 328.025 194.979 328.168 194.879 328.307Z" fill="#535353"/>
<path d="M153.688 330C156.424 331.734 157.894 332.097 160.956 332.538C158.22 330.805 156.749 330.442 153.688 330Z" fill="#BFBFBF"/>
<path d="M160.957 330C163.694 331.734 165.164 332.097 168.226 332.538C165.489 330.805 164.019 330.442 160.957 330Z" fill="#808080"/>
<path d="M107.652 333.383C106.844 334.513 108.763 334.371 108.863 334.231C109.671 333.102 107.752 333.244 107.652 333.383Z" fill="#CFCFCF"/>
<path d="M184.58 332.538C187.713 335.219 188.071 335.168 191.849 335.077C189.112 333.343 187.642 332.98 184.58 332.538Z" fill="#BFBFBF"/>
<path d="M191.85 332.538C194.117 334.277 194.663 334.439 197.301 335.077C195.033 333.338 194.488 333.175 191.85 332.538Z" fill="#828282"/>
<path d="M87.056 339.308C86.9561 339.448 86.8543 342.128 87.663 340.999C87.7629 340.859 87.8647 338.179 87.056 339.308Z" fill="#525252"/>
</svg>
